<mxfile host="app.diagrams.net" modified="2023-12-13T15:21:31.532Z" agent="Mozilla/5.0 (Windows NT 10.0; Win64; x64) AppleWebKit/537.36 (KHTML, like Gecko) Chrome/120.0.0.0 Safari/537.36 Edg/120.0.0.0" etag="i6V8o2yN1D7SQmpS5GAR" version="22.1.8" type="github">
  <diagram name="第 1 页" id="tsh4m79RRdu2e9AYNkRm">
    <mxGraphModel dx="1422" dy="306" grid="1" gridSize="10" guides="1" tooltips="1" connect="1" arrows="1" fold="1" page="1" pageScale="1" pageWidth="827" pageHeight="1169" math="0" shadow="0">
      <root>
        <mxCell id="0" />
        <mxCell id="1" parent="0" />
        <mxCell id="bHR7ARRuu4GWTC2dDA7a-1" value="訂單管理員" style="shape=umlActor;verticalLabelPosition=bottom;verticalAlign=top;html=1;outlineConnect=0;strokeColor=#CC0066;fontSize=11;" vertex="1" parent="1">
          <mxGeometry x="50" y="90" width="23.5" height="52" as="geometry" />
        </mxCell>
        <mxCell id="bHR7ARRuu4GWTC2dDA7a-2" value="" style="ellipse;whiteSpace=wrap;html=1;strokeColor=#FF99CC;fillColor=#FFFF99;fontSize=11;" vertex="1" parent="1">
          <mxGeometry x="160" y="40" width="60" height="30" as="geometry" />
        </mxCell>
        <mxCell id="bHR7ARRuu4GWTC2dDA7a-3" value="" style="ellipse;whiteSpace=wrap;html=1;strokeColor=#FF99CC;fillColor=#FFFF99;fontSize=11;" vertex="1" parent="1">
          <mxGeometry x="165" y="169" width="60" height="30" as="geometry" />
        </mxCell>
        <mxCell id="bHR7ARRuu4GWTC2dDA7a-4" value="" style="shape=partialRectangle;whiteSpace=wrap;html=1;left=0;right=0;fillColor=none;strokeColor=#f54da1;fontSize=11;" vertex="1" parent="1">
          <mxGeometry x="16.31" y="161" width="90.87" height="8" as="geometry" />
        </mxCell>
        <mxCell id="bHR7ARRuu4GWTC2dDA7a-6" value="登錄系統" style="text;html=1;align=center;verticalAlign=middle;resizable=0;points=[];autosize=1;strokeColor=none;fillColor=none;fontSize=11;" vertex="1" parent="1">
          <mxGeometry x="155" y="60" width="70" height="30" as="geometry" />
        </mxCell>
        <mxCell id="bHR7ARRuu4GWTC2dDA7a-7" value="管理訂單" style="text;html=1;align=center;verticalAlign=middle;resizable=0;points=[];autosize=1;strokeColor=none;fillColor=none;fontSize=11;" vertex="1" parent="1">
          <mxGeometry x="155" y="190" width="70" height="30" as="geometry" />
        </mxCell>
        <mxCell id="bHR7ARRuu4GWTC2dDA7a-8" value="" style="endArrow=openThin;html=1;endSize=7;startSize=7;entryX=0.026;entryY=0.707;entryDx=0;entryDy=0;entryPerimeter=0;endFill=0;strokeColor=#f50505;jumpStyle=line;shadow=0;rounded=0;jumpSize=9;strokeWidth=1;fontSize=11;" edge="1" parent="1" target="bHR7ARRuu4GWTC2dDA7a-2">
          <mxGeometry width="50" height="50" relative="1" as="geometry">
            <mxPoint x="80" y="107.98" as="sourcePoint" />
            <mxPoint x="130" y="57.980000000000004" as="targetPoint" />
          </mxGeometry>
        </mxCell>
        <mxCell id="bHR7ARRuu4GWTC2dDA7a-10" value="" style="endArrow=openThin;html=1;endSize=7;startSize=7;entryX=0;entryY=0.5;entryDx=0;entryDy=0;endFill=0;strokeColor=#f50505;jumpStyle=line;shadow=0;rounded=0;jumpSize=9;strokeWidth=1;fontSize=11;" edge="1" parent="1" target="bHR7ARRuu4GWTC2dDA7a-3">
          <mxGeometry width="50" height="50" relative="1" as="geometry">
            <mxPoint x="81" y="117.98" as="sourcePoint" />
            <mxPoint x="160" y="74" as="targetPoint" />
          </mxGeometry>
        </mxCell>
        <mxCell id="bHR7ARRuu4GWTC2dDA7a-11" value="" style="ellipse;whiteSpace=wrap;html=1;strokeColor=#FF99CC;fillColor=#FFFF99;fontSize=11;" vertex="1" parent="1">
          <mxGeometry x="335" y="60" width="60" height="30" as="geometry" />
        </mxCell>
        <mxCell id="bHR7ARRuu4GWTC2dDA7a-12" value="" style="ellipse;whiteSpace=wrap;html=1;strokeColor=#FF99CC;fillColor=#FFFF99;fontSize=11;" vertex="1" parent="1">
          <mxGeometry x="335" y="120" width="60" height="30" as="geometry" />
        </mxCell>
        <mxCell id="bHR7ARRuu4GWTC2dDA7a-13" value="" style="ellipse;whiteSpace=wrap;html=1;strokeColor=#FF99CC;fillColor=#FFFF99;fontSize=11;" vertex="1" parent="1">
          <mxGeometry x="335" y="175" width="60" height="30" as="geometry" />
        </mxCell>
        <mxCell id="bHR7ARRuu4GWTC2dDA7a-14" value="" style="ellipse;whiteSpace=wrap;html=1;strokeColor=#FF99CC;fillColor=#FFFF99;fontSize=11;" vertex="1" parent="1">
          <mxGeometry x="335" y="229" width="60" height="30" as="geometry" />
        </mxCell>
        <mxCell id="bHR7ARRuu4GWTC2dDA7a-15" value="生成新的訂單" style="text;html=1;align=center;verticalAlign=middle;resizable=0;points=[];autosize=1;strokeColor=none;fillColor=none;fontSize=11;" vertex="1" parent="1">
          <mxGeometry x="324" y="80" width="90" height="30" as="geometry" />
        </mxCell>
        <mxCell id="bHR7ARRuu4GWTC2dDA7a-17" value="&lt;font style=&quot;font-size: 11px;&quot;&gt;修改訂單&lt;/font&gt;" style="text;html=1;align=center;verticalAlign=middle;resizable=0;points=[];autosize=1;strokeColor=none;fillColor=none;fontSize=11;" vertex="1" parent="1">
          <mxGeometry x="330" y="139" width="70" height="30" as="geometry" />
        </mxCell>
        <mxCell id="bHR7ARRuu4GWTC2dDA7a-18" value="&lt;font style=&quot;font-size: 11px;&quot;&gt;刪除訂單&lt;/font&gt;" style="text;html=1;align=center;verticalAlign=middle;resizable=0;points=[];autosize=1;strokeColor=none;fillColor=none;fontSize=11;" vertex="1" parent="1">
          <mxGeometry x="330" y="199" width="70" height="30" as="geometry" />
        </mxCell>
        <mxCell id="bHR7ARRuu4GWTC2dDA7a-19" value="&lt;font style=&quot;font-size: 11px;&quot;&gt;查詢訂單&lt;/font&gt;" style="text;html=1;align=center;verticalAlign=middle;resizable=0;points=[];autosize=1;strokeColor=none;fillColor=none;fontSize=11;" vertex="1" parent="1">
          <mxGeometry x="330" y="249" width="70" height="30" as="geometry" />
        </mxCell>
        <mxCell id="bHR7ARRuu4GWTC2dDA7a-20" value="" style="ellipse;whiteSpace=wrap;html=1;strokeColor=#FF99CC;fillColor=#FFFF99;fontSize=11;" vertex="1" parent="1">
          <mxGeometry x="525" y="60" width="60" height="30" as="geometry" />
        </mxCell>
        <mxCell id="bHR7ARRuu4GWTC2dDA7a-21" value="&lt;font style=&quot;font-size: 11px;&quot;&gt;核實訂單&lt;/font&gt;" style="text;html=1;align=center;verticalAlign=middle;resizable=0;points=[];autosize=1;strokeColor=none;fillColor=none;fontSize=11;" vertex="1" parent="1">
          <mxGeometry x="520" y="80" width="70" height="30" as="geometry" />
        </mxCell>
        <mxCell id="bHR7ARRuu4GWTC2dDA7a-22" value="&amp;lt;&amp;lt;include&amp;gt;&amp;gt;" style="endArrow=openThin;endSize=7;dashed=1;html=1;rounded=0;entryX=0;entryY=0.5;entryDx=0;entryDy=0;labelBackgroundColor=none;strokeColor=#fc0303;endFill=0;fontSize=11;exitX=1;exitY=0.5;exitDx=0;exitDy=0;" edge="1" parent="1" source="bHR7ARRuu4GWTC2dDA7a-11" target="bHR7ARRuu4GWTC2dDA7a-20">
          <mxGeometry x="0.0032" width="160" relative="1" as="geometry">
            <mxPoint x="400" y="75" as="sourcePoint" />
            <mxPoint x="520" y="74.71" as="targetPoint" />
            <mxPoint as="offset" />
          </mxGeometry>
        </mxCell>
        <mxCell id="bHR7ARRuu4GWTC2dDA7a-23" value="&amp;lt;&amp;lt;include&amp;gt;&amp;gt;" style="endArrow=openThin;endSize=7;dashed=1;html=1;rounded=0;entryX=0;entryY=0.5;entryDx=0;entryDy=0;labelBackgroundColor=none;strokeColor=#fc0303;endFill=0;exitX=0.796;exitY=0.018;exitDx=0;exitDy=0;exitPerimeter=0;fontSize=11;" edge="1" parent="1" source="bHR7ARRuu4GWTC2dDA7a-3" target="bHR7ARRuu4GWTC2dDA7a-11">
          <mxGeometry x="0.1111" width="160" relative="1" as="geometry">
            <mxPoint x="200" y="120" as="sourcePoint" />
            <mxPoint x="290" y="120.28999999999999" as="targetPoint" />
            <mxPoint as="offset" />
          </mxGeometry>
        </mxCell>
        <mxCell id="bHR7ARRuu4GWTC2dDA7a-24" value="&amp;lt;&amp;lt;include&amp;gt;&amp;gt;" style="endArrow=openThin;endSize=7;dashed=1;html=1;rounded=0;entryX=0;entryY=0.5;entryDx=0;entryDy=0;labelBackgroundColor=none;strokeColor=#fc0303;endFill=0;exitX=0.994;exitY=0.369;exitDx=0;exitDy=0;exitPerimeter=0;fontSize=11;" edge="1" parent="1" source="bHR7ARRuu4GWTC2dDA7a-3" target="bHR7ARRuu4GWTC2dDA7a-12">
          <mxGeometry x="-0.1111" width="160" relative="1" as="geometry">
            <mxPoint x="220" y="150" as="sourcePoint" />
            <mxPoint x="310" y="150.29" as="targetPoint" />
            <mxPoint as="offset" />
          </mxGeometry>
        </mxCell>
        <mxCell id="bHR7ARRuu4GWTC2dDA7a-25" value="&amp;lt;&amp;lt;include&amp;gt;&amp;gt;" style="endArrow=openThin;endSize=7;dashed=1;html=1;rounded=0;entryX=0;entryY=0.5;entryDx=0;entryDy=0;labelBackgroundColor=none;strokeColor=#fc0303;endFill=0;exitX=1.024;exitY=0.689;exitDx=0;exitDy=0;exitPerimeter=0;fontSize=11;" edge="1" parent="1" source="bHR7ARRuu4GWTC2dDA7a-3" target="bHR7ARRuu4GWTC2dDA7a-13">
          <mxGeometry x="0.0032" width="160" relative="1" as="geometry">
            <mxPoint x="390" y="104.71" as="sourcePoint" />
            <mxPoint x="480" y="105" as="targetPoint" />
            <mxPoint as="offset" />
          </mxGeometry>
        </mxCell>
        <mxCell id="bHR7ARRuu4GWTC2dDA7a-26" value="&amp;lt;&amp;lt;include&amp;gt;&amp;gt;" style="endArrow=openThin;endSize=7;dashed=1;html=1;rounded=0;entryX=-0.067;entryY=0.41;entryDx=0;entryDy=0;labelBackgroundColor=none;strokeColor=#fc0303;endFill=0;entryPerimeter=0;fontSize=11;exitX=0.833;exitY=0.833;exitDx=0;exitDy=0;exitPerimeter=0;" edge="1" parent="1" source="bHR7ARRuu4GWTC2dDA7a-3" target="bHR7ARRuu4GWTC2dDA7a-14">
          <mxGeometry x="0.0032" width="160" relative="1" as="geometry">
            <mxPoint x="210" y="160" as="sourcePoint" />
            <mxPoint x="490" y="115" as="targetPoint" />
            <mxPoint as="offset" />
          </mxGeometry>
        </mxCell>
        <mxCell id="bHR7ARRuu4GWTC2dDA7a-27" value="&lt;ul style=&quot;font-size: 11px;&quot;&gt;&lt;li style=&quot;font-size: 11px;&quot;&gt;manageOrder()&lt;/li&gt;&lt;/ul&gt;" style="text;html=1;align=center;verticalAlign=middle;resizable=0;points=[];autosize=1;strokeColor=none;fillColor=none;fontSize=11;" vertex="1" parent="1">
          <mxGeometry x="-20" y="155" width="140" height="50" as="geometry" />
        </mxCell>
      </root>
    </mxGraphModel>
  </diagram>
</mxfile>
